<svg xmlns="http://www.w3.org/2000/svg" width="850" height="128" style="background:#1a1a1a">
<g transform="translate(0, 0)"><text x="50" y="118" text-anchor="middle" font-size="11" fill="#888">10%</text><circle cx="50" cy="52" r="42" fill="none" stroke="#333" stroke-width="1"/><circle cx="50" cy="10" r="3" fill="#555"/><path d="M 8.0 94.0 L 8.1 94.0 L 8.1 93.9 L 8.0 93.9 Z M 91.9 10.1 L 92.0 10.1 L 92.0 10.0 L 91.9 10.0 Z M 50.0 10.0 L 53.8 10.2 L 57.5 10.7 L 61.2 11.5 L 64.8 12.7 L 68.2 14.2 L 71.5 15.9 L 74.7 18.0 L 70.0 24.5 L 67.4 22.8 L 64.8 21.4 L 61.9 20.2 L 59.0 19.2 L 56.1 18.5 L 53.0 18.1 L 50.0 18.0 Z " fill="#e8761e" transform="translate(0.0,0)"/></g><g transform="translate(120, 0)"><text x="50" y="118" text-anchor="middle" font-size="11" fill="#888">25%</text><circle cx="50" cy="52" r="42" fill="none" stroke="#333" stroke-width="1"/><circle cx="50" cy="10" r="3" fill="#555"/><path d="M 8.0 94.0 L 8.1 94.0 L 8.1 93.9 L 8.0 93.9 Z M 91.9 10.1 L 92.0 10.1 L 92.0 10.0 L 91.9 10.0 Z M 50.0 10.0 L 53.7 10.2 L 57.3 10.6 L 60.9 11.4 L 64.4 12.5 L 67.7 13.9 L 71.0 15.6 L 74.1 17.6 L 77.0 19.8 L 79.7 22.3 L 82.2 25.0 L 84.4 27.9 L 86.4 31.0 L 88.1 34.3 L 89.5 37.6 L 90.6 41.1 L 91.4 44.7 L 91.8 48.3 L 92.0 52.0 L 84.0 52.0 L 83.9 49.0 L 83.5 46.1 L 82.8 43.2 L 81.9 40.4 L 80.8 37.6 L 79.4 35.0 L 77.9 32.5 L 76.0 30.1 L 74.0 28.0 L 71.9 26.0 L 69.5 24.1 L 67.0 22.6 L 64.4 21.2 L 61.6 20.1 L 58.8 19.2 L 55.9 18.5 L 53.0 18.1 L 50.0 18.0 Z " fill="#e8761e" transform="translate(0.0,0)"/></g><g transform="translate(240, 0)"><text x="50" y="118" text-anchor="middle" font-size="11" fill="#888">50%</text><circle cx="50" cy="52" r="42" fill="none" stroke="#333" stroke-width="1"/><circle cx="50" cy="10" r="3" fill="#555"/><path d="M 8.0 94.0 L 8.1 94.0 L 8.1 93.9 L 8.0 93.9 Z M 91.9 10.1 L 92.0 10.1 L 92.0 10.0 L 91.9 10.0 Z M 50.0 10.0 L 53.7 10.2 L 57.3 10.6 L 60.9 11.4 L 64.4 12.5 L 67.7 13.9 L 71.0 15.6 L 74.1 17.6 L 77.0 19.8 L 79.7 22.3 L 82.2 25.0 L 84.4 27.9 L 86.4 31.0 L 88.1 34.3 L 89.5 37.6 L 90.6 41.1 L 91.4 44.7 L 91.8 48.3 L 92.0 52.0 L 91.8 55.7 L 91.4 59.3 L 90.6 62.9 L 89.5 66.4 L 88.1 69.7 L 86.4 73.0 L 84.4 76.1 L 82.2 79.0 L 79.7 81.7 L 77.0 84.2 L 74.1 86.4 L 71.0 88.4 L 67.7 90.1 L 64.4 91.5 L 60.9 92.6 L 57.3 93.4 L 53.7 93.8 L 50.0 94.0 L 50.0 86.0 L 53.0 85.9 L 55.9 85.5 L 58.8 84.8 L 61.6 83.9 L 64.4 82.8 L 67.0 81.4 L 69.5 79.9 L 71.9 78.0 L 74.0 76.0 L 76.0 73.9 L 77.9 71.5 L 79.4 69.0 L 80.8 66.4 L 81.9 63.6 L 82.8 60.8 L 83.5 57.9 L 83.9 55.0 L 84.0 52.0 L 83.9 49.0 L 83.5 46.1 L 82.8 43.2 L 81.9 40.4 L 80.8 37.6 L 79.4 35.0 L 77.9 32.5 L 76.0 30.1 L 74.0 28.0 L 71.9 26.0 L 69.5 24.1 L 67.0 22.6 L 64.4 21.2 L 61.6 20.1 L 58.8 19.2 L 55.9 18.5 L 53.0 18.1 L 50.0 18.0 Z " fill="#e8761e" transform="translate(0.0,0)"/></g><g transform="translate(360, 0)"><text x="50" y="118" text-anchor="middle" font-size="11" fill="#888">60%</text><circle cx="50" cy="52" r="42" fill="none" stroke="#333" stroke-width="1"/><circle cx="50" cy="10" r="3" fill="#555"/><path d="M 8.0 94.0 L 8.1 94.0 L 8.1 93.9 L 8.0 93.9 Z M 91.9 10.1 L 92.0 10.1 L 92.0 10.0 L 91.9 10.0 Z M 50.0 10.0 L 53.7 10.2 L 57.3 10.6 L 60.9 11.4 L 64.4 12.6 L 67.8 14.0 L 71.1 15.7 L 74.2 17.7 L 77.1 19.9 L 79.8 22.4 L 82.3 25.1 L 84.5 28.1 L 86.5 31.2 L 88.2 34.5 L 89.5 37.9 L 90.6 41.4 L 91.4 45.0 L 91.9 48.6 L 92.0 52.3 L 91.8 56.0 L 91.3 59.6 L 90.5 63.2 L 89.3 66.7 L 87.9 70.1 L 86.2 73.4 L 84.2 76.4 L 81.9 79.3 L 79.4 82.0 L 76.6 84.5 L 73.7 86.7 L 70.6 88.6 L 67.3 90.3 L 63.9 91.7 L 60.3 92.7 L 56.7 93.5 L 53.1 93.9 L 49.4 94.0 L 45.7 93.8 L 42.1 93.2 L 38.5 92.4 L 35.0 91.2 L 31.6 89.8 L 28.4 88.0 L 25.3 86.0 L 30.0 79.5 L 32.5 81.2 L 35.1 82.6 L 37.9 83.8 L 40.7 84.7 L 43.6 85.4 L 46.5 85.8 L 49.5 86.0 L 52.5 85.9 L 55.4 85.6 L 58.4 85.0 L 61.2 84.1 L 64.0 83.0 L 66.6 81.6 L 69.2 80.1 L 71.6 78.3 L 73.8 76.3 L 75.8 74.1 L 77.7 71.8 L 79.3 69.3 L 80.7 66.7 L 81.8 63.9 L 82.8 61.1 L 83.4 58.2 L 83.8 55.2 L 84.0 52.2 L 83.9 49.3 L 83.5 46.3 L 82.9 43.4 L 82.0 40.6 L 80.9 37.8 L 79.5 35.1 L 77.9 32.6 L 76.1 30.3 L 74.1 28.0 L 71.9 26.0 L 69.6 24.2 L 67.1 22.6 L 64.4 21.2 L 61.7 20.1 L 58.8 19.2 L 55.9 18.5 L 53.0 18.1 L 50.0 18.0 Z " fill="#e8761e" transform="translate(0.0,0)"/></g><g transform="translate(480, 0)"><text x="50" y="118" text-anchor="middle" font-size="11" fill="#888">66%</text><circle cx="50" cy="52" r="42" fill="none" stroke="#333" stroke-width="1"/><circle cx="50" cy="10" r="3" fill="#555"/><path d="M 8.0 94.0 L 8.1 94.0 L 8.1 93.9 L 8.0 93.9 Z M 91.9 10.1 L 92.0 10.1 L 92.0 10.0 L 91.9 10.0 Z M 50.0 10.0 L 53.7 10.2 L 57.4 10.7 L 61.0 11.5 L 64.5 12.6 L 67.9 14.0 L 71.2 15.7 L 74.3 17.8 L 77.2 20.0 L 80.0 22.6 L 82.4 25.3 L 84.7 28.3 L 86.6 31.4 L 88.3 34.7 L 89.7 38.2 L 90.7 41.7 L 91.5 45.3 L 91.9 49.0 L 92.0 52.7 L 91.8 56.4 L 91.2 60.1 L 90.3 63.7 L 89.2 67.2 L 87.7 70.6 L 85.9 73.8 L 83.8 76.9 L 81.5 79.8 L 78.9 82.5 L 76.1 84.9 L 73.1 87.1 L 69.9 89.0 L 66.6 90.6 L 63.1 91.9 L 59.6 92.9 L 55.9 93.6 L 52.2 93.9 L 48.5 94.0 L 44.8 93.7 L 41.2 93.1 L 37.6 92.1 L 34.1 90.9 L 30.8 89.3 L 27.5 87.5 L 24.5 85.4 L 21.7 83.0 L 19.0 80.4 L 16.7 77.5 L 14.5 74.5 L 21.3 70.2 L 23.0 72.7 L 24.9 75.0 L 27.1 77.1 L 29.4 79.0 L 31.8 80.7 L 34.4 82.2 L 37.1 83.5 L 40.0 84.5 L 42.9 85.2 L 45.8 85.7 L 48.8 86.0 L 51.8 86.0 L 54.8 85.7 L 57.7 85.1 L 60.6 84.3 L 63.4 83.2 L 66.1 81.9 L 68.7 80.4 L 71.1 78.6 L 73.4 76.7 L 75.5 74.5 L 77.4 72.2 L 79.0 69.7 L 80.5 67.0 L 81.7 64.3 L 82.7 61.5 L 83.4 58.5 L 83.8 55.6 L 84.0 52.6 L 83.9 49.6 L 83.6 46.6 L 83.0 43.7 L 82.1 40.8 L 81.0 38.0 L 79.6 35.3 L 78.1 32.8 L 76.3 30.4 L 74.2 28.2 L 72.1 26.1 L 69.7 24.3 L 67.2 22.7 L 64.5 21.3 L 61.8 20.1 L 58.9 19.2 L 56.0 18.5 L 53.0 18.1 L 50.0 18.0 Z " fill="#e8761e" transform="translate(0.0,0)"/></g><g transform="translate(600, 0)"><text x="50" y="118" text-anchor="middle" font-size="11" fill="#888">75%</text><circle cx="50" cy="52" r="42" fill="none" stroke="#333" stroke-width="1"/><circle cx="50" cy="10" r="3" fill="#555"/><path d="M 8.0 94.0 L 8.1 94.0 L 8.1 93.9 L 8.0 93.9 Z M 91.9 10.1 L 92.0 10.1 L 92.0 10.0 L 91.9 10.0 Z M 50.0 10.0 L 53.7 10.2 L 57.3 10.6 L 60.9 11.4 L 64.4 12.5 L 67.7 13.9 L 71.0 15.6 L 74.1 17.6 L 77.0 19.8 L 79.7 22.3 L 82.2 25.0 L 84.4 27.9 L 86.4 31.0 L 88.1 34.3 L 89.5 37.6 L 90.6 41.1 L 91.4 44.7 L 91.8 48.3 L 92.0 52.0 L 91.8 55.7 L 91.4 59.3 L 90.6 62.9 L 89.5 66.4 L 88.1 69.7 L 86.4 73.0 L 84.4 76.1 L 82.2 79.0 L 79.7 81.7 L 77.0 84.2 L 74.1 86.4 L 71.0 88.4 L 67.7 90.1 L 64.4 91.5 L 60.9 92.6 L 57.3 93.4 L 53.7 93.8 L 50.0 94.0 L 46.3 93.8 L 42.7 93.4 L 39.1 92.6 L 35.6 91.5 L 32.3 90.1 L 29.0 88.4 L 25.9 86.4 L 23.0 84.2 L 20.3 81.7 L 17.8 79.0 L 15.6 76.1 L 13.6 73.0 L 11.9 69.7 L 10.5 66.4 L 9.4 62.9 L 8.6 59.3 L 8.2 55.7 L 8.0 52.0 L 16.0 52.0 L 16.1 55.0 L 16.5 57.9 L 17.2 60.8 L 18.1 63.6 L 19.2 66.4 L 20.6 69.0 L 22.1 71.5 L 24.0 73.9 L 26.0 76.0 L 28.1 78.0 L 30.5 79.9 L 33.0 81.4 L 35.6 82.8 L 38.4 83.9 L 41.2 84.8 L 44.1 85.5 L 47.0 85.9 L 50.0 86.0 L 53.0 85.9 L 55.9 85.5 L 58.8 84.8 L 61.6 83.9 L 64.4 82.8 L 67.0 81.4 L 69.5 79.9 L 71.9 78.0 L 74.0 76.0 L 76.0 73.9 L 77.9 71.5 L 79.4 69.0 L 80.8 66.4 L 81.9 63.6 L 82.8 60.8 L 83.5 57.9 L 83.9 55.0 L 84.0 52.0 L 83.9 49.0 L 83.5 46.1 L 82.8 43.2 L 81.9 40.4 L 80.8 37.6 L 79.4 35.0 L 77.9 32.5 L 76.0 30.1 L 74.0 28.0 L 71.9 26.0 L 69.5 24.1 L 67.0 22.6 L 64.4 21.2 L 61.6 20.1 L 58.8 19.2 L 55.9 18.5 L 53.0 18.1 L 50.0 18.0 Z " fill="#e8761e" transform="translate(0.0,0)"/></g><g transform="translate(720, 0)"><text x="50" y="118" text-anchor="middle" font-size="11" fill="#888">100%</text><circle cx="50" cy="52" r="42" fill="none" stroke="#333" stroke-width="1"/><circle cx="50" cy="10" r="3" fill="#555"/><path d="M 8.0 94.0 L 8.1 94.0 L 8.1 93.9 L 8.0 93.9 Z M 91.9 10.1 L 92.0 10.1 L 92.0 10.0 L 91.9 10.0 Z M 50.0 10.0 L 53.7 10.2 L 57.3 10.6 L 60.9 11.4 L 64.4 12.5 L 67.7 13.9 L 71.0 15.6 L 74.1 17.6 L 77.0 19.8 L 79.7 22.3 L 82.2 25.0 L 84.4 27.9 L 86.4 31.0 L 88.1 34.3 L 89.5 37.6 L 90.6 41.1 L 91.4 44.7 L 91.8 48.3 L 92.0 52.0 L 91.8 55.7 L 91.4 59.3 L 90.6 62.9 L 89.5 66.4 L 88.1 69.7 L 86.4 73.0 L 84.4 76.1 L 82.2 79.0 L 79.7 81.7 L 77.0 84.2 L 74.1 86.4 L 71.0 88.4 L 67.7 90.1 L 64.4 91.5 L 60.9 92.6 L 57.3 93.4 L 53.7 93.8 L 50.0 94.0 L 46.3 93.8 L 42.7 93.4 L 39.1 92.6 L 35.6 91.5 L 32.3 90.1 L 29.0 88.4 L 25.9 86.4 L 23.0 84.2 L 20.3 81.7 L 17.8 79.0 L 15.6 76.1 L 13.6 73.0 L 11.9 69.7 L 10.5 66.4 L 9.4 62.9 L 8.6 59.3 L 8.2 55.7 L 8.0 52.0 L 8.2 48.3 L 8.6 44.7 L 9.4 41.1 L 10.5 37.6 L 11.9 34.3 L 13.6 31.0 L 15.6 27.9 L 17.8 25.0 L 20.3 22.3 L 23.0 19.8 L 25.9 17.6 L 29.0 15.6 L 32.3 13.9 L 35.6 12.5 L 39.1 11.4 L 42.7 10.6 L 46.3 10.2 L 50.0 10.0 L 50.0 18.0 L 47.0 18.1 L 44.1 18.5 L 41.2 19.2 L 38.4 20.1 L 35.6 21.2 L 33.0 22.6 L 30.5 24.1 L 28.1 26.0 L 26.0 28.0 L 24.0 30.1 L 22.1 32.5 L 20.6 35.0 L 19.2 37.6 L 18.1 40.4 L 17.2 43.2 L 16.5 46.1 L 16.1 49.0 L 16.0 52.0 L 16.1 55.0 L 16.5 57.9 L 17.2 60.8 L 18.1 63.6 L 19.2 66.4 L 20.6 69.0 L 22.1 71.5 L 24.0 73.9 L 26.0 76.0 L 28.1 78.0 L 30.5 79.9 L 33.0 81.4 L 35.6 82.8 L 38.4 83.9 L 41.2 84.8 L 44.1 85.5 L 47.0 85.9 L 50.0 86.0 L 53.0 85.9 L 55.9 85.5 L 58.8 84.8 L 61.6 83.9 L 64.4 82.8 L 67.0 81.4 L 69.5 79.9 L 71.9 78.0 L 74.0 76.0 L 76.0 73.9 L 77.9 71.5 L 79.4 69.0 L 80.8 66.4 L 81.9 63.6 L 82.8 60.8 L 83.5 57.9 L 83.9 55.0 L 84.0 52.0 L 83.9 49.0 L 83.5 46.1 L 82.8 43.2 L 81.9 40.4 L 80.8 37.6 L 79.4 35.0 L 77.9 32.5 L 76.0 30.1 L 74.0 28.0 L 71.9 26.0 L 69.5 24.1 L 67.0 22.6 L 64.4 21.2 L 61.6 20.1 L 58.8 19.2 L 55.9 18.5 L 53.0 18.1 L 50.0 18.0 Z " fill="#e8761e" transform="translate(0.0,0)"/></g>
</svg>